<?xml version="1.0" encoding="UTF-8"?>
<svg width="512" height="512" viewBox="0 0 512 512" xmlns="http://www.w3.org/2000/svg">
  <defs>
    <linearGradient id="bgGradient512" x1="0%" y1="0%" x2="100%" y2="100%">
      <stop offset="0%" style="stop-color:#0066cc;stop-opacity:1" />
      <stop offset="100%" style="stop-color:#0052a3;stop-opacity:1" />
    </linearGradient>
    <linearGradient id="doorGradient512" x1="0%" y1="0%" x2="0%" y2="100%">
      <stop offset="0%" style="stop-color:#ffffff;stop-opacity:1" />
      <stop offset="100%" style="stop-color:#e6e6e6;stop-opacity:1" />
    </linearGradient>
  </defs>
  <rect width="512" height="512" fill="url(#bgGradient512)" rx="80"/>
  <rect x="80" y="120" width="140" height="280" fill="url(#doorGradient512)" rx="8" stroke="#b3b3b3" stroke-width="4"/>
  <circle cx="195" cy="260" r="12" fill="#0066cc"/>
  <rect x="95" y="140" width="110" height="110" fill="none" stroke="#d9d9d9" stroke-width="3" rx="4"/>
  <rect x="95" y="270" width="110" height="110" fill="none" stroke="#d9d9d9" stroke-width="3" rx="4"/>
  <path d="M 230 200 L 280 200" stroke="#FFD700" stroke-width="8" stroke-linecap="round"/>
  <path d="M 270 190 L 285 200 L 270 210" fill="#FFD700" stroke="none"/>
  <path d="M 230 260 L 280 260" stroke="#FFD700" stroke-width="8" stroke-linecap="round"/>
  <path d="M 270 250 L 285 260 L 270 270" fill="#FFD700" stroke="none"/>
  <path d="M 280 320 L 230 320" stroke="#4CAF50" stroke-width="8" stroke-linecap="round"/>
  <path d="M 240 310 L 225 320 L 240 330" fill="#4CAF50" stroke="none"/>
  <rect x="292" y="120" width="140" height="280" fill="url(#doorGradient512)" rx="8" stroke="#b3b3b3" stroke-width="4"/>
  <circle cx="307" cy="260" r="12" fill="#4CAF50"/>
  <rect x="307" y="140" width="110" height="110" fill="none" stroke="#d9d9d9" stroke-width="3" rx="4"/>
  <rect x="307" y="270" width="110" height="110" fill="none" stroke="#d9d9d9" stroke-width="3" rx="4"/>
  <circle cx="362" cy="180" r="24" fill="#4CAF50" opacity="0.9"/>
  <path d="M 362 172 L 362 176" stroke="white" stroke-width="2" stroke-linecap="round"/>
  <rect x="354" y="176" width="16" height="12" fill="white" rx="2"/>
  <circle cx="362" cy="182" r="2" fill="#4CAF50"/>
  <circle cx="256" cy="430" r="18" fill="#4CAF50" opacity="0.8"/>
  <path d="M 248 430 L 254 436 L 264 424" stroke="white" stroke-width="3" stroke-linecap="round" stroke-linejoin="round" fill="none"/>
</svg>